<?xml version="1.0" encoding="UTF-8"?>
<svg id="_Слой_1" data-name="Слой 1" xmlns="http://www.w3.org/2000/svg" viewBox="0 0 2000 2000">
  <defs>
    <style>
      .cls-1 {
        fill: #fff;
        stroke-width: 0px;
      }
    </style>
  </defs>
  <path class="cls-1" d="m1000,0C447.72,0,0,447.72,0,1000s447.72,1000,1000,1000,1000-447.72,1000-1000S1552.28,0,1000,0Zm-129.44,286.81c0-39.5,32.02-71.52,71.52-71.52h115.46c39.5,0,71.52,32.02,71.52,71.52v457.07c0,39.5-32.02,71.52-71.52,71.52h-115.46c-39.5,0-71.52-32.02-71.52-71.52v-457.07Zm749.05,957.07c-26.61,83.61-68.84,159.54-125.5,225.7-54.7,63.86-120.45,115.9-195.43,154.67-74.98,38.77-155.45,62.35-239.17,70.07-19.93,1.84-39.86,2.76-59.72,2.76-66.58,0-132.6-10.31-196.99-30.8-83.61-26.61-159.54-68.84-225.7-125.5-63.86-54.7-115.9-120.45-154.67-195.43-38.77-74.98-62.35-155.45-70.07-239.18-8-86.74,1.43-173.11,28.04-256.72,26.61-83.61,68.84-159.54,125.5-225.7,54.7-63.86,120.45-115.9,195.43-154.67.28-.15.57-.29.85-.44,39.62-20.42,86.79,8.69,86.79,53.27v81.32c0,20.82-10.84,40.13-28.61,50.97-91.35,55.69-163.82,143.21-198.75,252.93-37.27,117.1-26.71,241.7,29.74,350.86,56.45,109.16,152.02,189.8,269.12,227.07,117.1,37.27,241.7,26.71,350.86-29.74,109.15-56.45,189.8-152.02,227.07-269.12,37.27-117.1,26.71-241.7-29.74-350.86-39.34-76.07-97.69-138.28-169.07-181.62-17.73-10.76-28.42-30.12-28.42-50.86v-81.01c0-44.6,47.19-73.62,86.86-53.24,44.66,22.95,86.43,51,124.89,83.95,63.86,54.7,115.9,120.45,154.67,195.43,38.77,74.98,62.35,155.45,70.07,239.17,8,86.74-1.43,173.11-28.04,256.72Z"/>
</svg>